<svg width="41" height="44" viewBox="0 0 41 44" fill="none" xmlns="http://www.w3.org/2000/svg">
<path d="M13.4887 19.5283C13.3565 16.3442 15.1539 8.99976 24.1933 2.54681C24.1933 4.92422 24.7219 5.23554 24.9862 5.09403L28.3562 2.54681C28.5544 3.39589 28.7527 5.26385 27.9597 5.9431C26.9686 6.79218 30.5368 6.57991 32.5191 14.2216C35.0565 16.4291 37.8053 15.4244 38.8625 14.6461C39.7876 18.0424 39.8141 25.0048 32.5191 25.684C29.5456 25.684 26.5721 25.8963 25.9774 30.1417C25.3827 34.387 26.3739 36.2974 29.7438 42.4532" stroke="white" stroke-width="2" stroke-linecap="round"/>
<path d="M22.8056 42.4532C17.2551 36.2974 20.2286 34.1747 19.0392 28.6558C17.8498 23.1368 14.797 20.4198 11.3081 18.8914C10.9909 21.4387 10.9117 21.8632 10.5152 21.8632C10.1187 21.8632 7.34346 20.5896 7.34346 20.5896C7.34346 20.5896 7.01307 22.9245 7.34346 23.9859C6.08798 23.9151 3.49774 24.8774 3.18056 29.2926C1.43611 31.1605 1 32.0521 1 32.2643C1.13216 34.0332 2.26869 37.2739 5.7576 36.0852" stroke="white" stroke-width="2" stroke-linecap="round"/>
</svg>
