<svg width="32" height="33" viewBox="0 0 32 33" fill="none" xmlns="http://www.w3.org/2000/svg">
<path d="M10.8641 14.766C10.7647 12.3723 12.1159 6.85106 18.9114 2C18.9114 3.78723 19.3088 4.02128 19.5075 3.91489L22.0409 2C22.1899 2.6383 22.3389 4.04255 21.7428 4.55319C20.9977 5.19149 23.6801 5.03191 25.1703 10.7766C27.0779 12.4362 29.1443 11.6809 29.9391 11.0957C30.6345 13.6489 30.6544 18.883 25.1703 19.3936C22.935 19.3936 20.6996 19.5532 20.2526 22.7447C19.8055 25.9362 20.5506 27.3723 23.084 32" stroke="#06113C" stroke-width="2" stroke-linecap="round"/>
<path d="M17.8683 32C13.6956 27.3723 15.931 25.7766 15.0369 21.6277C14.1427 17.4787 11.8477 15.4362 9.22493 14.2872C8.9865 16.2021 8.92689 16.5213 8.62884 16.5213C8.33079 16.5213 6.24446 15.5638 6.24446 15.5638C6.24446 15.5638 5.99609 17.3191 6.24446 18.117C5.30065 18.0638 3.35341 18.7872 3.11497 22.1064C1.80356 23.5106 1.47571 24.1808 1.47571 24.3404C1.57506 25.6702 2.42946 28.1064 5.05227 27.2128" stroke="#06113C" stroke-width="2" stroke-linecap="round"/>
</svg>
