<svg width="26" height="25" viewBox="0 0 26 25" fill="none" xmlns="http://www.w3.org/2000/svg">
<path d="M13.143 4.89686L11.9907 3.71767C9.28575 0.949676 4.32596 1.90487 2.53554 5.38486C1.69498 7.02166 1.50533 9.38485 3.0402 12.4008C4.51882 15.3048 7.59498 18.7832 13.143 22.572C18.691 18.7832 21.7656 15.3048 23.2458 12.4008C24.7807 9.38325 24.5926 7.02166 23.7505 5.38486C21.9601 1.90487 17.0003 0.948076 14.2954 3.71607L13.143 4.89686ZM13.143 24.5C-11.5001 8.28885 5.55546 -4.36391 12.8601 2.32887C12.9566 2.41687 13.0514 2.50807 13.143 2.60247C13.2337 2.50816 13.3281 2.41742 13.4259 2.33047C20.729 -4.36711 37.7861 8.28725 13.143 24.5Z" fill="white"/>
</svg>
