<svg width="31" height="28" viewBox="0 0 31 28" fill="none" xmlns="http://www.w3.org/2000/svg">
<path d="M15.9288 5.12967L14.5844 3.75395C11.4287 0.524622 5.64229 1.63902 3.55347 5.69901C2.57282 7.6086 2.35156 10.3657 4.14224 13.8843C5.86729 17.2723 9.45615 21.3304 15.9288 25.7507C22.4015 21.3304 25.9885 17.2723 27.7155 13.8843C29.5061 10.3638 29.2868 7.6086 28.3042 5.69901C26.2154 1.63902 20.429 0.522756 17.2733 3.75208L15.9288 5.12967ZM15.9288 28C-12.8214 9.08699 7.0767 -5.67456 15.5988 2.13368C15.7113 2.23635 15.822 2.34275 15.9288 2.45288C16.0346 2.34285 16.1447 2.23699 16.2589 2.13555C24.7791 -5.67829 44.6791 9.08513 15.9288 28Z" fill="#626262"/>
</svg>
