<svg width="29" height="28" viewBox="0 0 29 28" fill="none" xmlns="http://www.w3.org/2000/svg">
<path d="M14.313 0C10.5137 0 10.036 0.0175 8.54324 0.084C7.05049 0.154 6.03374 0.3885 5.14299 0.735C4.20865 1.08643 3.36235 1.6377 2.66324 2.35025C1.95112 3.04972 1.39993 3.89592 1.04799 4.83C0.701488 5.719 0.465238 6.7375 0.396988 8.225C0.330488 9.72125 0.312988 10.1973 0.312988 14.0018C0.312988 17.8027 0.330488 18.2788 0.396988 19.7715C0.466988 21.2625 0.701488 22.2792 1.04799 23.17C1.40674 24.0905 1.88449 24.871 2.66324 25.6497C3.44024 26.4285 4.22074 26.908 5.14124 27.265C6.03374 27.6115 7.04874 27.8477 8.53974 27.916C10.0342 27.9825 10.5102 28 14.313 28C18.1157 28 18.59 27.9825 20.0845 27.916C21.5737 27.846 22.594 27.6115 23.4847 27.265C24.4185 26.9134 25.2642 26.3621 25.9627 25.6497C26.7415 24.871 27.2192 24.0905 27.578 23.17C27.9227 22.2792 28.159 21.2625 28.229 19.7715C28.2955 18.2788 28.313 17.8027 28.313 14C28.313 10.1972 28.2955 9.72125 28.229 8.22675C28.159 6.7375 27.9227 5.719 27.578 4.83C27.2261 3.89589 26.6749 3.04968 25.9627 2.35025C25.2638 1.63743 24.4175 1.08613 23.483 0.735C22.5905 0.3885 21.572 0.15225 20.0827 0.084C18.5882 0.0175 18.114 0 14.3095 0H14.3147H14.313ZM13.0582 2.5235H14.3147C18.0527 2.5235 18.4955 2.53575 19.9707 2.604C21.3357 2.66525 22.0777 2.8945 22.5712 3.08525C23.224 3.339 23.6912 3.6435 24.1812 4.1335C24.6712 4.6235 24.974 5.089 25.2277 5.7435C25.4202 6.23525 25.6477 6.97725 25.709 8.34225C25.7772 9.8175 25.7912 10.2603 25.7912 13.9965C25.7912 17.7327 25.7772 18.1772 25.709 19.6525C25.6477 21.0175 25.4185 21.7577 25.2277 22.2513C25.0033 22.8591 24.645 23.4088 24.1795 23.8595C23.6895 24.3495 23.224 24.6523 22.5695 24.906C22.0795 25.0985 21.3375 25.326 19.9707 25.389C18.4955 25.4555 18.0527 25.4713 14.3147 25.4713C10.5767 25.4713 10.1322 25.4555 8.65699 25.389C7.29199 25.326 6.55174 25.0985 6.05824 24.906C5.45011 24.6819 4.89996 24.3243 4.44824 23.8595C3.9823 23.4081 3.6235 22.8579 3.39824 22.2495C3.20749 21.7577 2.97824 21.0158 2.91699 19.6507C2.85049 18.1755 2.83649 17.7327 2.83649 13.993C2.83649 10.255 2.85049 9.814 2.91699 8.33875C2.97999 6.97375 3.20749 6.23175 3.39999 5.73825C3.65374 5.0855 3.95824 4.61825 4.44824 4.12825C4.93824 3.63825 5.40374 3.3355 6.05824 3.08175C6.55174 2.88925 7.29199 2.66175 8.65699 2.59875C9.94849 2.53925 10.449 2.52175 13.0582 2.52V2.5235ZM21.7872 4.8475C21.5666 4.8475 21.3482 4.89095 21.1443 4.97538C20.9405 5.05981 20.7553 5.18356 20.5993 5.33956C20.4433 5.49556 20.3195 5.68076 20.2351 5.88459C20.1507 6.08842 20.1072 6.30688 20.1072 6.5275C20.1072 6.74812 20.1507 6.96658 20.2351 7.17041C20.3195 7.37423 20.4433 7.55944 20.5993 7.71544C20.7553 7.87144 20.9405 7.99519 21.1443 8.07962C21.3482 8.16405 21.5666 8.2075 21.7872 8.2075C22.2328 8.2075 22.6601 8.0305 22.9752 7.71544C23.2902 7.40038 23.4672 6.97306 23.4672 6.5275C23.4672 6.08194 23.2902 5.65462 22.9752 5.33956C22.6601 5.0245 22.2328 4.8475 21.7872 4.8475ZM14.3147 6.811C13.3611 6.79612 12.4141 6.9711 11.5287 7.32575C10.6433 7.68039 9.83739 8.20762 9.15775 8.87674C8.47811 9.54586 7.93838 10.3435 7.56996 11.2232C7.20154 12.1029 7.01181 13.0471 7.01181 14.0009C7.01181 14.9546 7.20154 15.8988 7.56996 16.7785C7.93838 17.6583 8.47811 18.4559 9.15775 19.125C9.83739 19.7941 10.6433 20.3214 11.5287 20.676C12.4141 21.0306 13.3611 21.2056 14.3147 21.1908C16.2022 21.1613 18.0024 20.3908 19.3267 19.0457C20.651 17.7005 21.3933 15.8886 21.3933 14.0009C21.3933 12.1132 20.651 10.3012 19.3267 8.95606C18.0024 7.6109 16.2022 6.84045 14.3147 6.811ZM14.3147 9.33275C15.5526 9.33275 16.7397 9.82448 17.615 10.6998C18.4903 11.575 18.982 12.7622 18.982 14C18.982 15.2378 18.4903 16.425 17.615 17.3002C16.7397 18.1755 15.5526 18.6672 14.3147 18.6672C13.0769 18.6672 11.8898 18.1755 11.0145 17.3002C10.1392 16.425 9.64749 15.2378 9.64749 14C9.64749 12.7622 10.1392 11.575 11.0145 10.6998C11.8898 9.82448 13.0769 9.33275 14.3147 9.33275Z" fill="#06113C"/>
</svg>
