<svg width="13" height="21" viewBox="0 0 13 21" fill="none" xmlns="http://www.w3.org/2000/svg">
<path d="M0.586022 11.7975L10.0076 20.0699C11.1179 21.0462 12.8571 20.2527 12.8571 18.7711V2.22633C12.8574 1.89474 12.7625 1.57009 12.5836 1.29127C12.4048 1.01245 12.1497 0.791266 11.8488 0.654217C11.548 0.517167 11.2141 0.470057 10.8873 0.518529C10.5604 0.567 10.2544 0.708998 10.0059 0.927518L0.587741 9.1999C0.403142 9.3618 0.255191 9.56146 0.153819 9.78547C0.0524464 10.0095 0 10.2527 0 10.4987C0 10.7447 0.0524464 10.9879 0.153819 11.212C0.255191 11.436 0.403142 11.6356 0.587741 11.7975H0.586022Z" fill="#FF8C32"/>
</svg>
