<svg width="29" height="46" viewBox="0 0 29 46" fill="none" xmlns="http://www.w3.org/2000/svg">
<path d="M1.31855 25.9194L22.5172 44.5323C25.0152 46.7289 28.9286 44.9437 28.9286 41.61V4.38424C28.9292 3.63816 28.7155 2.9077 28.3132 2.28035C27.9108 1.653 27.3368 1.15535 26.6599 0.846987C25.9829 0.538626 25.2318 0.432629 24.4964 0.54169C23.7609 0.65075 23.0724 0.970245 22.5133 1.46191L1.32242 20.0748C0.907071 20.439 0.574179 20.8883 0.346092 21.3923C0.118005 21.8963 0 22.4435 0 22.9971C0 23.5507 0.118005 24.0979 0.346092 24.6019C0.574179 25.1059 0.907071 25.5552 1.32242 25.9194H1.31855Z" fill="#06113C"/>
</svg>
