<svg width="32" height="18" viewBox="0 0 32 18" fill="none" xmlns="http://www.w3.org/2000/svg">
<path d="M0.61853 16.7143C0.61853 16.3733 0.753989 16.0463 0.995108 15.8051C1.23623 15.564 1.56325 15.4286 1.90424 15.4286H9.61853C9.95952 15.4286 10.2865 15.564 10.5277 15.8051C10.7688 16.0463 10.9042 16.3733 10.9042 16.7143C10.9042 17.0553 10.7688 17.3823 10.5277 17.6234C10.2865 17.8645 9.95952 18 9.61853 18H1.90424C1.56325 18 1.23623 17.8645 0.995108 17.6234C0.753989 17.3823 0.61853 17.0553 0.61853 16.7143ZM0.61853 9C0.61853 8.65901 0.753989 8.33198 0.995108 8.09086C1.23623 7.84974 1.56325 7.71429 1.90424 7.71429H19.9042C20.2452 7.71429 20.5723 7.84974 20.8134 8.09086C21.0545 8.33198 21.19 8.65901 21.19 9C21.19 9.34099 21.0545 9.66802 20.8134 9.90914C20.5723 10.1503 20.2452 10.2857 19.9042 10.2857H1.90424C1.56325 10.2857 1.23623 10.1503 0.995108 9.90914C0.753989 9.66802 0.61853 9.34099 0.61853 9ZM0.61853 1.28571C0.61853 0.944722 0.753989 0.617695 0.995108 0.376577C1.23623 0.135459 1.56325 0 1.90424 0H30.19C30.531 0 30.858 0.135459 31.0991 0.376577C31.3402 0.617695 31.4757 0.944722 31.4757 1.28571C31.4757 1.62671 31.3402 1.95373 31.0991 2.19485C30.858 2.43597 30.531 2.57143 30.19 2.57143H1.90424C1.56325 2.57143 1.23623 2.43597 0.995108 2.19485C0.753989 1.95373 0.61853 1.62671 0.61853 1.28571Z" fill="white"/>
</svg>
