<svg width="30" height="46" viewBox="0 0 30 46" fill="none" xmlns="http://www.w3.org/2000/svg">
<path d="M28.6384 25.9194L7.36327 44.5323C4.8562 46.7289 0.928712 44.9437 0.928712 41.61V4.38424C0.928073 3.63816 1.1425 2.9077 1.54632 2.28035C1.95014 1.653 2.52624 1.15535 3.20562 0.846987C3.88499 0.538626 4.63886 0.432629 5.37693 0.54169C6.115 0.65075 6.80599 0.970245 7.36715 1.46191L28.6346 20.0748C29.0514 20.439 29.3855 20.8883 29.6144 21.3923C29.8433 21.8963 29.9617 22.4435 29.9617 22.9971C29.9617 23.5507 29.8433 24.0979 29.6144 24.6019C29.3855 25.1059 29.0514 25.5552 28.6346 25.9194H28.6384Z" fill="#06113C"/>
</svg>
