<svg width="25" height="28" viewBox="0 0 25 28" fill="none" xmlns="http://www.w3.org/2000/svg">
<path d="M14.313 0H17.778C18.03 1.25125 18.723 2.82975 19.9392 4.396C21.1292 5.93075 22.7077 7 24.813 7V10.5C21.7452 10.5 19.4405 9.0755 17.813 7.29925V19.25C17.813 20.9806 17.2998 22.6723 16.3383 24.1112C15.3769 25.5502 14.0103 26.6717 12.4115 27.3339C10.8126 27.9962 9.05328 28.1695 7.35595 27.8319C5.65862 27.4942 4.09952 26.6609 2.87581 25.4372C1.6521 24.2135 0.818742 22.6544 0.481121 20.957C0.1435 19.2597 0.31678 17.5004 0.979046 15.9015C1.64131 14.3027 2.76282 12.9361 4.20175 11.9746C5.64068 11.0132 7.33241 10.5 9.06299 10.5V14C8.02464 14 7.00961 14.3079 6.14625 14.8848C5.28289 15.4617 4.60998 16.2816 4.21262 17.2409C3.81526 18.2002 3.7113 19.2558 3.91387 20.2742C4.11644 21.2926 4.61646 22.2281 5.35068 22.9623C6.08491 23.6965 7.02037 24.1965 8.03877 24.3991C9.05717 24.6017 10.1128 24.4977 11.0721 24.1004C12.0314 23.703 12.8513 23.0301 13.4282 22.1667C14.0051 21.3034 14.313 20.2883 14.313 19.25V0Z" fill="#06113C"/>
</svg>
