<svg width="29" height="28" viewBox="0 0 29 28" fill="none" xmlns="http://www.w3.org/2000/svg">
<path d="M24.6147 4.07057C23.331 2.77501 21.8023 1.74788 20.1177 1.04904C18.4331 0.350201 16.6262 -0.00637746 14.8024 8.63282e-05C7.16022 8.63282e-05 0.931988 6.22657 0.924988 13.8705C0.924988 16.3188 1.56549 18.7005 2.77473 20.8093L0.812988 28L8.16997 26.0715C10.2052 27.1791 12.4853 27.7597 14.8024 27.7603H14.8094C22.4534 27.7603 28.6799 21.5338 28.6869 13.8828C28.6887 12.0594 28.3296 10.2536 27.6304 8.5696C26.9312 6.88556 25.9057 5.35652 24.6129 4.07057H24.6147ZM14.8024 25.4118C12.7357 25.4125 10.7069 24.8563 8.92946 23.8018L8.50946 23.5498L4.14498 24.6943L5.31047 20.4365L5.03748 19.9973C3.88214 18.1604 3.27111 16.0336 3.27523 13.8635C3.27523 7.51806 8.44996 2.34158 14.8094 2.34158C16.3245 2.33886 17.8251 2.63606 19.2247 3.21604C20.6244 3.79601 21.8953 4.6473 22.9644 5.72082C24.0372 6.79015 24.8877 8.06131 25.4668 9.46096C26.0459 10.8606 26.3421 12.3611 26.3384 13.8758C26.3314 20.244 21.1567 25.4118 14.8024 25.4118ZM21.1287 16.7773C20.7839 16.604 19.0812 15.7658 18.7609 15.6468C18.4424 15.533 18.2097 15.4735 17.9822 15.82C17.7494 16.1648 17.0844 16.9505 16.8849 17.1763C16.6854 17.409 16.4789 17.4353 16.1324 17.2638C15.7877 17.0888 14.6694 16.7248 13.3464 15.54C12.314 14.6213 11.6227 13.4838 11.4162 13.139C11.2167 12.7925 11.397 12.607 11.5702 12.4338C11.7225 12.2798 11.915 12.0278 12.0882 11.8283C12.2632 11.6288 12.321 11.4818 12.4347 11.2508C12.5485 11.0163 12.4942 10.8168 12.4085 10.6436C12.321 10.4703 11.6297 8.76056 11.3375 8.07106C11.0575 7.39031 10.7722 7.48481 10.5587 7.47606C10.3592 7.46381 10.1265 7.46381 9.89371 7.46381C9.71795 7.46818 9.54498 7.50883 9.38568 7.58322C9.22637 7.6576 9.08416 7.76411 8.96796 7.89606C8.64946 8.24256 7.75872 9.08081 7.75872 10.7906C7.75872 12.5003 9.00121 14.1435 9.17621 14.3763C9.34771 14.609 11.6157 18.1073 15.0964 19.6123C15.9189 19.971 16.5664 20.1828 17.0722 20.3438C17.9034 20.6098 18.6542 20.5695 19.2527 20.4838C19.9177 20.3823 21.3019 19.6438 21.5942 18.8335C21.8812 18.0215 21.8812 17.3285 21.7937 17.1833C21.7079 17.0363 21.4752 16.9505 21.1287 16.7773Z" fill="#06113C"/>
</svg>
