<svg width="40" height="40" viewBox="0 0 40 40" fill="none" xmlns="http://www.w3.org/2000/svg">
<path d="M34.0925 5.81511C32.2587 3.9643 30.0748 2.49698 27.6683 1.49863C25.2617 0.500287 22.6805 -0.00911066 20.075 0.000123326C9.15756 0.000123326 0.260087 8.8951 0.250087 19.8151C0.250087 23.3126 1.16508 26.715 2.89258 29.7275L0.0900879 40L10.6001 37.245C13.5076 38.8273 16.7649 39.6567 20.075 39.6575H20.085C31.005 39.6575 39.9 30.7625 39.91 19.8326C39.9125 17.2277 39.3995 14.648 38.4006 12.2423C37.4018 9.83652 35.9368 7.65218 34.09 5.81511H34.0925ZM20.075 36.3025C17.1225 36.3035 14.2243 35.509 11.6851 34.0025L11.0851 33.6425L4.85007 35.2775L6.51507 29.195L6.12507 28.5675C4.47459 25.9434 3.60169 22.9051 3.60758 19.8051C3.60758 10.7401 11.0001 3.34511 20.085 3.34511C22.2494 3.34123 24.3931 3.7658 26.3926 4.59434C28.392 5.42288 30.2077 6.639 31.735 8.1726C33.2676 9.70022 34.4825 11.5162 35.3098 13.5157C36.1371 15.5152 36.5603 17.6587 36.555 19.8226C36.545 28.92 29.1525 36.3025 20.075 36.3025ZM29.1125 23.9676C28.62 23.7201 26.1875 22.5226 25.73 22.3526C25.275 22.1901 24.9425 22.1051 24.6175 22.6001C24.285 23.0926 23.335 24.215 23.05 24.5375C22.765 24.87 22.47 24.9075 21.975 24.6625C21.4825 24.4125 19.885 23.8926 17.995 22.2001C16.52 20.8876 15.5325 19.2626 15.2375 18.7701C14.9525 18.2751 15.21 18.0101 15.4575 17.7626C15.675 17.5426 15.95 17.1826 16.1975 16.8976C16.4475 16.6126 16.53 16.4026 16.6925 16.0726C16.855 15.7376 16.7775 15.4526 16.655 15.2051C16.53 14.9576 15.5425 12.5151 15.125 11.5301C14.725 10.5576 14.3175 10.6926 14.0125 10.6801C13.7275 10.6626 13.395 10.6626 13.0625 10.6626C12.8115 10.6688 12.5644 10.7269 12.3368 10.8332C12.1092 10.9394 11.906 11.0916 11.7401 11.2801C11.2851 11.7751 10.0126 12.9726 10.0126 15.4151C10.0126 17.8576 11.7876 20.2051 12.0375 20.5376C12.2825 20.8701 15.5225 25.8675 20.495 28.0175C21.67 28.53 22.595 28.8325 23.3175 29.0625C24.505 29.4425 25.5775 29.385 26.4325 29.2625C27.3825 29.1175 29.36 28.0625 29.7775 26.905C30.1875 25.745 30.1875 24.7551 30.0625 24.5476C29.94 24.3376 29.6075 24.2151 29.1125 23.9676Z" fill="white"/>
</svg>
